<svg xmlns="http://www.w3.org/2000/svg" viewBox="0 0 1600 1200" font-family="Segoe UI, Arial, sans-serif"><rect width="1600" height="1200" fill="#14181f"/><g transform="translate(80,56) scale(0.43103448275862066)"><rect x="72" y="0" width="12" height="12" fill="#e8a87c"/><rect x="84" y="0" width="12" height="12" fill="#e8a87c"/><rect x="72" y="12" width="12" height="12" fill="#e8a87c"/><rect x="84" y="12" width="12" height="12" fill="#e8a87c"/><rect x="72" y="24" width="12" height="12" fill="#e8a87c"/><rect x="84" y="24" width="12" height="12" fill="#e8a87c"/><rect x="72" y="36" width="12" height="12" fill="#e8a87c"/><rect x="84" y="36" width="12" height="12" fill="#e8a87c"/><rect x="72" y="48" width="12" height="12" fill="#e8a87c"/><rect x="84" y="48" width="12" height="12" fill="#e8a87c"/><rect x="72" y="60" width="12" height="12" fill="#e8a87c"/><rect x="84" y="60" width="12" height="12" fill="#e8a87c"/><rect x="72" y="72" width="12" height="12" fill="#d97757"/><rect x="84" y="72" width="12" height="12" fill="#d97757"/><rect x="72" y="84" width="12" height="12" fill="#d97757"/><rect x="84" y="84" width="12" height="12" fill="#d97757"/><rect x="72" y="96" width="12" height="12" fill="#d97757"/><rect x="84" y="96" width="12" height="12" fill="#d97757"/><rect x="72" y="108" width="12" height="12" fill="#d97757"/><rect x="84" y="108" width="12" height="12" fill="#d97757"/><rect x="72" y="120" width="12" height="12" fill="#d97757"/><rect x="84" y="120" width="12" height="12" fill="#d97757"/><rect x="72" y="132" width="12" height="12" fill="#d97757"/><rect x="84" y="132" width="12" height="12" fill="#d97757"/><rect x="72" y="144" width="12" height="12" fill="#a84b32"/><rect x="84" y="144" width="12" height="12" fill="#a84b32"/><rect x="72" y="156" width="12" height="12" fill="#a84b32"/><rect x="84" y="156" width="12" height="12" fill="#a84b32"/><rect x="72" y="168" width="12" height="12" fill="#a84b32"/><rect x="84" y="168" width="12" height="12" fill="#a84b32"/><rect x="72" y="180" width="12" height="12" fill="#a84b32"/><rect x="84" y="180" width="12" height="12" fill="#a84b32"/><rect x="72" y="192" width="12" height="12" fill="#a84b32"/><rect x="84" y="192" width="12" height="12" fill="#a84b32"/><rect x="72" y="204" width="12" height="12" fill="#a84b32"/><rect x="84" y="204" width="12" height="12" fill="#a84b32"/><rect x="24" y="24" width="12" height="12" fill="#b8613f"/><rect x="24" y="72" width="12" height="12" fill="#b8613f"/><rect x="36" y="24" width="12" height="12" fill="#b8613f"/><rect x="36" y="72" width="12" height="12" fill="#b8613f"/><rect x="48" y="24" width="12" height="12" fill="#b8613f"/><rect x="48" y="72" width="12" height="12" fill="#b8613f"/><rect x="60" y="24" width="12" height="12" fill="#b8613f"/><rect x="60" y="72" width="12" height="12" fill="#b8613f"/><rect x="24" y="36" width="12" height="12" fill="#b8613f"/><rect x="24" y="48" width="12" height="12" fill="#b8613f"/><rect x="24" y="60" width="12" height="12" fill="#b8613f"/><rect x="108" y="24" width="12" height="12" fill="#b8613f"/><rect x="132" y="24" width="12" height="12" fill="#b8613f"/><rect x="108" y="36" width="12" height="12" fill="#b8613f"/><rect x="132" y="36" width="12" height="12" fill="#b8613f"/><rect x="108" y="48" width="12" height="12" fill="#b8613f"/><rect x="132" y="48" width="12" height="12" fill="#b8613f"/><rect x="108" y="60" width="12" height="12" fill="#b8613f"/><rect x="132" y="60" width="12" height="12" fill="#b8613f"/><rect x="108" y="72" width="12" height="12" fill="#b8613f"/><rect x="120" y="72" width="12" height="12" fill="#b8613f"/><rect x="132" y="72" width="12" height="12" fill="#b8613f"/><rect x="156" y="24" width="12" height="12" fill="#b8613f"/><rect x="168" y="24" width="12" height="12" fill="#b8613f"/><rect x="180" y="24" width="12" height="12" fill="#b8613f"/><rect x="180" y="36" width="12" height="12" fill="#b8613f"/><rect x="156" y="48" width="12" height="12" fill="#b8613f"/><rect x="168" y="48" width="12" height="12" fill="#b8613f"/><rect x="180" y="48" width="12" height="12" fill="#b8613f"/><rect x="156" y="60" width="12" height="12" fill="#b8613f"/><rect x="180" y="60" width="12" height="12" fill="#b8613f"/><rect x="156" y="72" width="12" height="12" fill="#b8613f"/><rect x="168" y="72" width="12" height="12" fill="#b8613f"/><rect x="180" y="72" width="12" height="12" fill="#b8613f"/><rect x="204" y="24" width="12" height="12" fill="#b8613f"/><rect x="216" y="24" width="12" height="12" fill="#b8613f"/><rect x="228" y="24" width="12" height="12" fill="#b8613f"/><rect x="204" y="36" width="12" height="12" fill="#b8613f"/><rect x="228" y="36" width="12" height="12" fill="#b8613f"/><rect x="204" y="48" width="12" height="12" fill="#b8613f"/><rect x="228" y="48" width="12" height="12" fill="#b8613f"/><rect x="204" y="60" width="12" height="12" fill="#b8613f"/><rect x="228" y="60" width="12" height="12" fill="#b8613f"/><rect x="204" y="72" width="12" height="12" fill="#b8613f"/><rect x="228" y="72" width="12" height="12" fill="#b8613f"/><rect x="264" y="24" width="12" height="12" fill="#b8613f"/><rect x="252" y="36" width="12" height="12" fill="#b8613f"/><rect x="264" y="36" width="12" height="12" fill="#b8613f"/><rect x="276" y="36" width="12" height="12" fill="#b8613f"/><rect x="264" y="48" width="12" height="12" fill="#b8613f"/><rect x="264" y="60" width="12" height="12" fill="#b8613f"/><rect x="264" y="72" width="12" height="12" fill="#b8613f"/><rect x="276" y="72" width="12" height="12" fill="#b8613f"/><rect x="96" y="132" width="12" height="12" fill="#b8613f"/><rect x="96" y="180" width="12" height="12" fill="#b8613f"/><rect x="108" y="132" width="12" height="12" fill="#b8613f"/><rect x="108" y="180" width="12" height="12" fill="#b8613f"/><rect x="120" y="132" width="12" height="12" fill="#b8613f"/><rect x="120" y="180" width="12" height="12" fill="#b8613f"/><rect x="132" y="132" width="12" height="12" fill="#b8613f"/><rect x="132" y="180" width="12" height="12" fill="#b8613f"/><rect x="132" y="144" width="12" height="12" fill="#b8613f"/><rect x="132" y="156" width="12" height="12" fill="#b8613f"/><rect x="132" y="168" width="12" height="12" fill="#b8613f"/><rect x="156" y="132" width="12" height="12" fill="#b8613f"/><rect x="168" y="132" width="12" height="12" fill="#b8613f"/><rect x="180" y="132" width="12" height="12" fill="#b8613f"/><rect x="156" y="144" width="12" height="12" fill="#b8613f"/><rect x="156" y="156" width="12" height="12" fill="#b8613f"/><rect x="156" y="168" width="12" height="12" fill="#b8613f"/><rect x="156" y="180" width="12" height="12" fill="#b8613f"/><rect x="204" y="132" width="12" height="12" fill="#b8613f"/><rect x="216" y="132" width="12" height="12" fill="#b8613f"/><rect x="228" y="132" width="12" height="12" fill="#b8613f"/><rect x="204" y="144" width="12" height="12" fill="#b8613f"/><rect x="228" y="144" width="12" height="12" fill="#b8613f"/><rect x="204" y="156" width="12" height="12" fill="#b8613f"/><rect x="228" y="156" width="12" height="12" fill="#b8613f"/><rect x="204" y="168" width="12" height="12" fill="#b8613f"/><rect x="228" y="168" width="12" height="12" fill="#b8613f"/><rect x="204" y="180" width="12" height="12" fill="#b8613f"/><rect x="216" y="180" width="12" height="12" fill="#b8613f"/><rect x="228" y="180" width="12" height="12" fill="#b8613f"/><rect x="252" y="132" width="12" height="12" fill="#b8613f"/><rect x="252" y="144" width="12" height="12" fill="#b8613f"/><rect x="252" y="156" width="12" height="12" fill="#b8613f"/><rect x="264" y="156" width="12" height="12" fill="#b8613f"/><rect x="276" y="156" width="12" height="12" fill="#b8613f"/><rect x="252" y="168" width="12" height="12" fill="#b8613f"/><rect x="276" y="168" width="12" height="12" fill="#b8613f"/><rect x="252" y="180" width="12" height="12" fill="#b8613f"/><rect x="264" y="180" width="12" height="12" fill="#b8613f"/><rect x="276" y="180" width="12" height="12" fill="#b8613f"/><rect x="300" y="132" width="12" height="12" fill="#b8613f"/><rect x="312" y="132" width="12" height="12" fill="#b8613f"/><rect x="324" y="132" width="12" height="12" fill="#b8613f"/><rect x="300" y="144" width="12" height="12" fill="#b8613f"/><rect x="324" y="144" width="12" height="12" fill="#b8613f"/><rect x="300" y="156" width="12" height="12" fill="#b8613f"/><rect x="312" y="156" width="12" height="12" fill="#b8613f"/><rect x="300" y="168" width="12" height="12" fill="#b8613f"/><rect x="300" y="180" width="12" height="12" fill="#b8613f"/><rect x="312" y="180" width="12" height="12" fill="#b8613f"/><rect x="324" y="180" width="12" height="12" fill="#b8613f"/></g><text x="266" y="92" fill="#7d879c" font-size="20" letter-spacing="4">MEASURED · GTX 1060 6GB · SAME MODEL, SAME BINARY, SAME FLAGS</text><text x="266" y="152" fill="#f5f6f8" font-size="58" font-weight="bold">The stuck boost state</text><text x="80" y="216" fill="#b3bccb" font-size="24">Qwen3-Coder-30B decode, tg128 - the box lost 28% overnight, and everything obvious was ruled out before the fix.</text><rect x="80" y="238" width="480.0" height="5" fill="#e8a87c"/><rect x="560.0" y="238" width="480.0" height="5" fill="#d97757"/><rect x="1040.0" y="238" width="480.0" height="5" fill="#a84b32"/><line x1="110" y1="980.0" x2="960" y2="980.0" stroke="#2a3340" stroke-width="1.5"/><text x="96" y="987.0" text-anchor="end" fill="#7d879c" font-size="19">0</text><line x1="110" y1="850.8333333333333" x2="960" y2="850.8333333333333" stroke="#2a3340" stroke-width="1.5"/><text x="96" y="857.8333333333333" text-anchor="end" fill="#7d879c" font-size="19">5</text><line x1="110" y1="721.6666666666666" x2="960" y2="721.6666666666666" stroke="#2a3340" stroke-width="1.5"/><text x="96" y="728.6666666666666" text-anchor="end" fill="#7d879c" font-size="19">10</text><line x1="110" y1="592.5" x2="960" y2="592.5" stroke="#2a3340" stroke-width="1.5"/><text x="96" y="599.5" text-anchor="end" fill="#7d879c" font-size="19">15</text><line x1="110" y1="463.33333333333326" x2="960" y2="463.33333333333326" stroke="#2a3340" stroke-width="1.5"/><text x="96" y="470.33333333333326" text-anchor="end" fill="#7d879c" font-size="19">20</text><text x="52" y="334" fill="#b3bccb" font-size="21">tok/s</text><line x1="110" y1="422.51666666666677" x2="960" y2="422.51666666666677" stroke="#14b8a6" stroke-width="2.5" stroke-dasharray="10 8" opacity="0.65"/><rect x="195.0" y="422.51666666666677" width="170" height="557.4833333333332" rx="10" fill="#14b8a6"/><text x="280.0" y="480.51666666666677" text-anchor="middle" fill="#14181f" font-size="44" font-weight="bold">21.58</text><text x="280.0" y="1020" text-anchor="middle" fill="#f5f6f8" font-size="23" font-weight="bold">DAY 1</text><text x="280.0" y="1052" text-anchor="middle" fill="#7d879c" font-size="20">calibration day</text><text x="280.0" y="1086" text-anchor="middle" fill="#b3bccb" font-size="19" font-weight="bold">SM 1835 · mem 4004</text><rect x="450.0" y="578.0333333333333" width="170" height="401.9666666666667" rx="10" fill="#a84b32"/><line x1="466" y1="586.0333333333333" x2="448" y2="974" stroke="#14181f" stroke-width="3" opacity="0.35"/><line x1="492" y1="586.0333333333333" x2="474" y2="974" stroke="#14181f" stroke-width="3" opacity="0.35"/><line x1="518" y1="586.0333333333333" x2="500" y2="974" stroke="#14181f" stroke-width="3" opacity="0.35"/><line x1="544" y1="586.0333333333333" x2="526" y2="974" stroke="#14181f" stroke-width="3" opacity="0.35"/><line x1="570" y1="586.0333333333333" x2="552" y2="974" stroke="#14181f" stroke-width="3" opacity="0.35"/><line x1="596" y1="586.0333333333333" x2="578" y2="974" stroke="#14181f" stroke-width="3" opacity="0.35"/><text x="535.0" y="636.0333333333333" text-anchor="middle" fill="#14181f" font-size="44" font-weight="bold">15.56</text><text x="535.0" y="1020" text-anchor="middle" fill="#f5f6f8" font-size="23" font-weight="bold">DAY 2 - same box</text><text x="535.0" y="1052" text-anchor="middle" fill="#7d879c" font-size="20">stuck boost state</text><text x="535.0" y="1086" text-anchor="middle" fill="#a84b32" font-size="19" font-weight="bold">SM 1506 · mem 3802</text><rect x="705.0" y="419.9333333333334" width="170" height="560.0666666666666" rx="10" fill="#2dd4bf"/><text x="790.0" y="477.9333333333334" text-anchor="middle" fill="#14181f" font-size="44" font-weight="bold">21.68</text><text x="790.0" y="509.9333333333334" text-anchor="middle" fill="#14181f" font-size="21" opacity="0.75">± 0.2</text><text x="790.0" y="1020" text-anchor="middle" fill="#f5f6f8" font-size="23" font-weight="bold">AFTER REBOOT</text><text x="790.0" y="1052" text-anchor="middle" fill="#7d879c" font-size="20">position control</text><text x="790.0" y="1086" text-anchor="middle" fill="#b3bccb" font-size="19" font-weight="bold">SM 1873 · mem 4006</text><text x="535.0" y="552.0333333333333" text-anchor="middle" fill="#a84b32" font-size="104" font-weight="bold">-28%</text><text x="790.0" y="382.51666666666677" text-anchor="middle" fill="#2dd4bf" font-size="22" font-weight="bold">day 1 reproduced to 0.5%</text><rect x="1010" y="350" width="510" height="636" rx="18" fill="#1c222c" stroke="#343d4d" stroke-width="1.5"/><text x="1046" y="406" fill="#f5f6f8" font-size="26" font-weight="bold">Ruled out, in order</text><text x="1046" y="470" fill="#a84b32" font-size="34" font-weight="bold">✗</text><text x="1102" y="462" fill="#f5f6f8" font-size="23" font-weight="bold">Background load</text><text x="1102" y="494" fill="#b3bccb" font-size="20">runaway orphan killed (16,285 CPU-s)</text><text x="1102" y="524" fill="#a84b32" font-size="20" font-weight="bold">still 15.3 tok/s</text><text x="1046" y="576" fill="#a84b32" font-size="34" font-weight="bold">✗</text><text x="1102" y="568" fill="#f5f6f8" font-size="23" font-weight="bold">Thermal</text><text x="1102" y="600" fill="#b3bccb" font-size="20">box idled to 32 °C, GPU quiet</text><text x="1102" y="630" fill="#a84b32" font-size="20" font-weight="bold">still 15.56 tok/s</text><text x="1046" y="682" fill="#a84b32" font-size="34" font-weight="bold">✗</text><text x="1102" y="674" fill="#f5f6f8" font-size="23" font-weight="bold">Our instrumentation</text><text x="1102" y="706" fill="#b3bccb" font-size="20">zero-patch pristine binary, same commit</text><text x="1102" y="736" fill="#a84b32" font-size="20" font-weight="bold">agrees within 1.4%</text><text x="1046" y="788" fill="#2dd4bf" font-size="34" font-weight="bold">✓</text><text x="1102" y="780" fill="#f5f6f8" font-size="23" font-weight="bold">Stuck boost state</text><text x="1102" y="812" fill="#b3bccb" font-size="20">SM pinned 1506 MHz under load, 38 °C</text><text x="1102" y="842" fill="#2dd4bf" font-size="20" font-weight="bold">reboot -> 1847-1898 MHz</text><line x1="1046" y1="872" x2="1484" y2="872" stroke="#2a3340" stroke-width="1.5"/><text x="1046" y="914" fill="#f5f6f8" font-size="22" font-weight="bold">No software reset on consumer Pascal.</text><text x="1046" y="948" fill="#b3bccb" font-size="21">If your numbers sagged and nothing explains it:</text><text x="1046" y="978" fill="#b3bccb" font-size="21">log clocks under load, then reboot.</text><rect x="80" y="1094" width="480.0" height="4" fill="#e8a87c"/><rect x="560.0" y="1094" width="480.0" height="4" fill="#d97757"/><rect x="1040.0" y="1094" width="480.0" height="4" fill="#a84b32"/><text x="80" y="1142" fill="#f5f6f8" font-size="24" font-weight="bold">quantprobe  <tspan fill="#2dd4bf" font-weight="normal">github.com/FedericoTs/quantprobe</tspan></text><text x="1520" y="1142" text-anchor="end" fill="#7d879c" font-size="19">preregs #60-#61 · staked before the reboot · weights/data/prereg61_coldboot.log</text></svg>